<?xml version="1.0" standalone="no"?>
<!DOCTYPE svg PUBLIC "-//W3C//DTD SVG 20010904//EN"
 "http://www.w3.org/TR/2001/REC-SVG-20010904/DTD/svg10.dtd">
<svg version="1.0" xmlns="http://www.w3.org/2000/svg"
 width="238.000000pt" height="219.000000pt" viewBox="0 0 238.000000 219.000000"
 preserveAspectRatio="xMidYMid meet">

<g transform="translate(0.000000,219.000000) scale(0.100000,-0.100000)"
fill="#000000" stroke="none">
<path d="M904 1358 c-146 -145 -269 -264 -275 -266 -5 -2 -9 -9 -9 -16 0 -9
523 -529 551 -547 3 -2 132 119 285 268 l279 273 -255 255 c-140 141 -267 265
-282 276 l-28 20 -266 -263z m38 -440 c114 -124 129 -143 168 -212 31 -56 32
-59 9 -43 -42 30 -309 278 -309 288 0 14 31 59 40 59 4 0 45 -42 92 -92z m582
76 c16 -42 5 -62 -70 -130 -42 -38 -93 -84 -113 -103 -20 -18 -58 -52 -85 -74
l-48 -41 26 51 c14 28 47 78 74 110 66 78 189 203 200 203 6 0 13 -7 16 -16z"/>
<path d="M1729 543 c-13 -16 -12 -17 4 -4 16 13 21 21 13 21 -2 0 -10 -8 -17
-17z"/>
</g>
</svg>
